<svg width="583" height="722" viewBox="0 0 583 722" fill="none" xmlns="http://www.w3.org/2000/svg">
<g clip-path="url(#clip0)">
<path fill-rule="evenodd" clip-rule="evenodd" d="M505.047 4.45324C421.754 -15.8492 337.766 35.1881 317.455 118.448C297.144 201.708 348.203 285.663 431.498 305.964C512.167 325.63 593.489 278.373 616.984 199.738C592.236 159.475 582.001 110.315 591.468 60.7895C570.687 33.6597 540.844 13.1784 505.047 4.45324Z" fill="#E6EED9"/>
<path d="M328.354 517.599C328.354 625.625 240.747 713.198 132.677 713.198C24.6075 713.198 -63 625.625 -63 517.599C-63 409.573 24.6075 322 132.677 322C240.747 322 328.354 409.573 328.354 517.599Z" fill="#DDF0F6"/>
</g>
<defs>
<clipPath id="clip0">
<rect width="583" height="722" fill="white"/>
</clipPath>
</defs>
</svg>
