<svg width="492" height="310" viewBox="0 0 492 310" fill="none" xmlns="http://www.w3.org/2000/svg">
<path d="M240.5 163L44 35.5C44 23 50 2.5 77.5 0.5H420.5C441 6.5 450.5 19.5 447.5 35.5L251 163C247.5 165.5 244.5 165.5 240.5 163Z" fill="white"/>
<path d="M174 155L43.5 237.272L43.5 72.7276L174 155Z" fill="white"/>
<path d="M318 155L448.5 72.7276V237.272L318 155Z" fill="white"/>
<path d="M296 176L448.043 274.375C448.043 286.875 442.043 307.375 414.543 309.375L71.5426 309.375C51.0426 303.375 41.5426 290.375 44.5426 274.375C44.5426 274.375 193.5 179.5 197 176C200.5 172.5 206 173.667 210 176C214 178.333 242 197 242 197C245.209 199.355 247.298 199.313 251.5 197L285 176C288.313 173.105 290.701 173.043 296 176Z" fill="white"/>
</svg>
