<svg width="2445" height="2133" viewBox="0 0 2445 2133" fill="none" xmlns="http://www.w3.org/2000/svg">
<path fill-rule="evenodd" clip-rule="evenodd" d="M2105.89 18.7085C1840.53 -55.689 1565.11 99.1152 1490.71 364.473C1416.31 629.831 1571.12 905.258 1836.47 979.655C2093.48 1051.71 2359.92 908.77 2444.04 658.623C2368.96 526.504 2341.48 367.389 2377.34 209.258C2313.55 119.783 2219.93 50.6815 2105.89 18.7085Z" fill="#DDF0F6"/>
<path d="M629 2133C976.387 2133 1258 1851.39 1258 1504C1258 1156.61 976.387 875 629 875C281.613 875 0 1156.61 0 1504C0 1851.39 281.613 2133 629 2133Z" fill="#E6EED9"/>
</svg>
