<svg width="537" height="486" xmlns="http://www.w3.org/2000/svg" xmlns:xlink="http://www.w3.org/1999/xlink" overflow="hidden"><defs><clipPath id="clip0"><rect x="-36" y="-43" width="537" height="486"/></clipPath><clipPath id="clip1"><path d="M-35.576 51.083 420.178-42.85 500.909 348.85 45.1553 442.783Z" fill-rule="evenodd" clip-rule="evenodd"/></clipPath><clipPath id="clip2"><path d="M-35.576 51.083 420.178-42.85 500.909 348.85 45.1553 442.783Z" fill-rule="evenodd" clip-rule="evenodd"/></clipPath><clipPath id="clip3"><path d="M-127.552-26.2712 452.997-145.925 570.232 422.886-10.317 542.54Z" fill-rule="evenodd" clip-rule="evenodd"/></clipPath></defs><g clip-path="url(#clip0)" transform="translate(36 43)"><g clip-path="url(#clip1)"><g clip-path="url(#clip2)"><g clip-path="url(#clip3)"><path d="M318.285 420.7C364.366 473.288 444.433 478.619 497.118 432.609 549.804 386.601 555.157 306.669 509.075 254.082 468.885 208.218 402.843 198.3 351.659 227.039 356.047 269.614 340.373 313.595 305.646 343.925 300.16 348.716 294.396 352.992 288.419 356.755 291.95 379.697 301.845 401.938 318.285 420.7Z" fill="#DDF0F6" fill-rule="evenodd" transform="matrix(0.979414 -0.201862 0.201865 0.979432 -127.552 -26.2712)"/><path d="M305.671 344.025C248.805 393.684 162.386 387.93 112.648 331.17 62.9095 274.411 68.6884 188.141 125.554 138.481 182.42 88.8211 268.84 94.5758 318.577 151.334 368.315 208.095 362.537 294.364 305.671 344.025Z" fill="#E6EED9" transform="matrix(0.979414 -0.201862 0.201865 0.979432 -127.552 -26.2712)"/></g></g></g></g></svg>