<svg width="409" height="512" viewBox="0 0 409 512" fill="none" xmlns="http://www.w3.org/2000/svg">
<path d="M117.082 150.468H178.649C193.233 150.465 207.675 153.281 221.15 158.755C234.624 164.229 246.868 172.253 257.181 182.369C267.495 192.485 275.676 204.496 281.257 217.714C286.838 230.933 289.711 245.1 289.71 259.408V411.808C289.71 415.065 289.056 418.29 287.786 421.299C286.516 424.307 284.653 427.041 282.306 429.344C279.959 431.647 277.172 433.474 274.105 434.72C271.038 435.967 267.751 436.608 264.431 436.608H117.082C110.378 436.608 103.948 433.995 99.207 429.344C94.4662 424.693 91.8029 418.385 91.8029 411.808V175.26C91.805 168.684 94.4693 162.378 99.2099 157.729C103.95 153.08 110.379 150.468 117.082 150.468V150.468Z" fill="#009D8F"/>
<path d="M170.58 123.256H115.41C110.754 123.256 106.979 126.959 106.979 131.528V142.196C106.979 146.764 110.754 150.468 115.41 150.468H170.58C175.237 150.468 179.012 146.764 179.012 142.196V131.528C179.012 126.959 175.237 123.256 170.58 123.256Z" fill="#F79F63"/>
<path d="M125.771 76H160.22C162.392 76 164.476 76.8466 166.012 78.3537C167.548 79.8607 168.411 81.9047 168.411 84.036V123.236H117.579V84.036C117.579 81.9047 118.442 79.8607 119.979 78.3537C121.515 76.8466 123.598 76 125.771 76Z" fill="#F5C464"/>
<path d="M126.676 180H146.198C151.224 180 156.044 181.959 159.598 185.445C163.153 188.932 165.149 193.661 165.149 198.592V244.74C165.149 247.182 164.659 249.599 163.707 251.855C162.754 254.111 161.358 256.16 159.598 257.887C157.839 259.613 155.75 260.982 153.45 261.917C151.151 262.851 148.687 263.332 146.198 263.332H140.082C137.592 263.334 135.126 262.855 132.825 261.921C130.524 260.988 128.432 259.619 126.671 257.892C124.909 256.166 123.512 254.115 122.559 251.859C121.605 249.602 121.115 247.183 121.115 244.74V185.44C121.114 184.724 121.258 184.016 121.538 183.355C121.818 182.693 122.228 182.093 122.744 181.588C123.261 181.082 123.874 180.682 124.549 180.41C125.224 180.137 125.946 179.998 126.676 180V180Z" fill="white"/>
<path d="M179.301 285.64H289.71V397.432H179.301C176.587 397.434 173.898 396.91 171.39 395.892C168.882 394.874 166.602 393.381 164.682 391.499C162.762 389.616 161.239 387.381 160.2 384.921C159.16 382.46 158.625 379.823 158.625 377.16V305.912C158.625 303.249 159.16 300.612 160.2 298.151C161.239 295.691 162.762 293.456 164.682 291.573C166.602 289.691 168.882 288.198 171.39 287.18C173.898 286.162 176.587 285.638 179.301 285.64V285.64Z" fill="#F5C464"/>
<path d="M247.461 350C247.461 356.06 245.008 361.871 240.64 366.156C236.272 370.441 230.349 372.848 224.172 372.848C217.995 372.848 212.071 370.441 207.704 366.156C203.336 361.871 200.882 356.06 200.882 350C200.882 337.38 224.172 311.152 224.172 311.152C224.172 311.152 247.461 337.38 247.461 350V350Z" fill="#FFF7ED"/>
<path d="M188.948 318.232C192.934 318.232 196.165 315.062 196.165 311.152C196.165 307.242 192.934 304.072 188.948 304.072C184.963 304.072 181.731 307.242 181.731 311.152C181.731 315.062 184.963 318.232 188.948 318.232Z" fill="#FFF7ED"/>
<path d="M264.716 379.928C268.702 379.928 271.933 376.758 271.933 372.848C271.933 368.938 268.702 365.768 264.716 365.768C260.731 365.768 257.5 368.938 257.5 372.848C257.5 376.758 260.731 379.928 264.716 379.928Z" fill="#FFF7ED"/>
<path d="M91.811 329.5C92.7482 329.501 93.6763 329.32 94.5422 328.968C95.4081 328.617 96.1949 328.101 96.8576 327.451C97.5203 326.801 98.0458 326.029 98.4042 325.179C98.7626 324.33 98.9468 323.419 98.9463 322.5V315C98.9463 313.143 98.1945 311.363 96.8564 310.05C95.5183 308.738 93.7034 308 91.811 308C89.9186 308 88.1038 308.738 86.7657 310.05C85.4275 311.363 84.6758 313.143 84.6758 315V322.5C84.6752 323.419 84.8595 324.33 85.2178 325.179C85.5762 326.029 86.1018 326.801 86.7645 327.451C87.4271 328.101 88.2139 328.617 89.0799 328.968C89.9458 329.32 90.8739 329.501 91.811 329.5V329.5Z" fill="#1E2A54"/>
<path d="M185.992 143.712C186.041 143.208 186.147 142.716 186.147 142.196V131.528C186.135 128.342 185.106 125.24 183.205 122.657C181.303 120.075 178.625 118.141 175.546 117.128V84.04C175.542 80.0538 173.926 76.232 171.054 73.4126C168.182 70.5932 164.287 69.0064 160.224 69H125.771C121.707 69.0053 117.811 70.5917 114.938 73.4112C112.065 76.2307 110.449 80.0531 110.444 84.04V117.128C107.365 118.141 104.687 120.075 102.786 122.657C100.884 125.24 99.8554 128.342 99.8433 131.528V142.196C99.853 144.092 100.225 145.97 100.94 147.732C96.0036 150.514 91.9013 154.523 89.0461 159.355C86.1909 164.186 84.6835 169.671 84.6758 175.256V281.656C84.6758 283.513 85.4275 285.293 86.7657 286.606C88.1038 287.918 89.9186 288.656 91.811 288.656C93.7034 288.656 95.5183 287.918 96.8564 286.606C98.1945 285.293 98.9463 283.513 98.9463 281.656V175.256C98.9528 170.539 100.866 166.017 104.267 162.682C107.668 159.347 112.278 157.472 117.086 157.468H178.653C206.204 157.496 232.619 168.244 252.102 187.355C271.584 206.466 282.544 232.379 282.575 259.408V278.64H179.301C171.931 278.65 164.865 281.526 159.654 286.64C154.443 291.753 151.511 298.685 151.502 305.916V377.16C151.511 384.39 154.443 391.322 159.654 396.435C164.866 401.548 171.931 404.424 179.301 404.432H282.575V411.82C282.57 416.536 280.657 421.057 277.258 424.392C273.859 427.727 269.25 429.603 264.443 429.608H117.086C112.278 429.604 107.668 427.729 104.267 424.394C100.866 421.059 98.9528 416.537 98.9463 411.82V356.5C98.9463 354.643 98.1945 352.863 96.8564 351.55C95.5183 350.238 93.7034 349.5 91.811 349.5C89.9186 349.5 88.1038 350.238 86.7657 351.55C85.4275 352.863 84.6758 354.643 84.6758 356.5V411.82C84.6866 420.249 88.105 428.329 94.181 434.289C100.257 440.248 108.494 443.6 117.086 443.608H264.439C273.03 443.598 281.266 440.246 287.34 434.287C293.415 428.328 296.832 420.248 296.841 411.82V259.42C296.808 229.926 285.331 201.551 264.742 180.06C244.153 158.568 215.996 145.572 185.992 143.712V143.712ZM124.715 84.04C124.714 83.9036 124.741 83.7685 124.794 83.6423C124.847 83.5162 124.924 83.4015 125.023 83.3048C125.121 83.2082 125.237 83.1316 125.366 83.0792C125.494 83.0269 125.632 83 125.771 83H160.224C160.362 83.0005 160.5 83.0278 160.628 83.0804C160.756 83.1329 160.872 83.2097 160.969 83.3063C161.067 83.4028 161.144 83.5173 161.197 83.6432C161.249 83.7691 161.276 83.904 161.276 84.04V116.256H124.715V84.04ZM117.086 143.468H115.406C115.062 143.468 114.733 143.334 114.489 143.095C114.246 142.857 114.11 142.533 114.11 142.196V131.528C114.111 131.191 114.248 130.868 114.491 130.63C114.734 130.391 115.063 130.257 115.406 130.256H170.58C170.924 130.257 171.253 130.391 171.496 130.63C171.739 130.868 171.876 131.191 171.877 131.528V142.196C171.877 142.533 171.74 142.857 171.497 143.095C171.254 143.334 170.924 143.468 170.58 143.468H117.086ZM179.301 390.432C175.714 390.429 172.275 389.029 169.739 386.541C167.203 384.053 165.776 380.679 165.773 377.16V305.916C165.775 302.396 167.201 299.021 169.737 296.532C172.274 294.043 175.714 292.643 179.301 292.64H282.575V390.432H179.301Z" fill="#1E2A54"/>
<path d="M140.078 270.332H146.194C153.113 270.326 159.746 267.626 164.638 262.827C169.531 258.027 172.282 251.52 172.288 244.732V198.592C172.282 191.804 169.531 185.297 164.638 180.497C159.746 175.698 153.113 172.998 146.194 172.992H126.676C123.314 172.996 120.091 174.308 117.714 176.64C115.337 178.972 114 182.134 113.996 185.432V244.74C113.998 251.526 116.746 258.034 121.637 262.833C126.528 267.631 133.161 270.329 140.078 270.332ZM128.254 187H146.194C149.33 187 152.337 188.222 154.555 190.398C156.772 192.573 158.018 195.523 158.018 198.6V244.74C158.018 247.817 156.772 250.767 154.555 252.942C152.337 255.118 149.33 256.34 146.194 256.34H140.078C136.942 256.34 133.934 255.118 131.717 252.942C129.5 250.767 128.254 247.817 128.254 244.74V187Z" fill="#1E2A54"/>
<path d="M218.794 306.556C214.607 311.264 193.747 335.496 193.747 350C193.747 357.916 196.953 365.508 202.658 371.106C208.364 376.703 216.103 379.848 224.172 379.848C232.241 379.848 239.98 376.703 245.685 371.106C251.391 365.508 254.597 357.916 254.597 350C254.597 335.496 233.737 311.264 229.554 306.556C228.865 305.833 228.032 305.256 227.107 304.862C226.181 304.468 225.183 304.264 224.174 304.264C223.165 304.264 222.167 304.468 221.241 304.862C220.316 305.256 219.483 305.833 218.794 306.556V306.556ZM224.172 365.848C219.889 365.843 215.783 364.171 212.755 361.2C209.727 358.229 208.023 354.202 208.018 350C208.018 344.908 215.663 332.8 224.164 322.16C231.955 331.94 240.326 344.496 240.326 350C240.322 354.202 238.618 358.23 235.59 361.202C232.561 364.173 228.455 365.844 224.172 365.848V365.848Z" fill="#1E2A54"/>
<path d="M188.948 318.232C192.934 318.232 196.165 315.062 196.165 311.152C196.165 307.242 192.934 304.072 188.948 304.072C184.963 304.072 181.731 307.242 181.731 311.152C181.731 315.062 184.963 318.232 188.948 318.232Z" fill="#1E2A54"/>
<path d="M264.716 379.928C268.702 379.928 271.933 376.758 271.933 372.848C271.933 368.938 268.702 365.768 264.716 365.768C260.731 365.768 257.5 368.938 257.5 372.848C257.5 376.758 260.731 379.928 264.716 379.928Z" fill="#1E2A54"/>
</svg>
