<svg id="Capa_1" enable-background="new 0 0 511.942 511.942" height="512" viewBox="0 0 511.942 511.942" width="512" xmlns="http://www.w3.org/2000/svg"><g><path d="m493.469 173.212s-95.578 132.964-237.522 132.964-237.522-132.964-237.522-132.964 94.125-132.964 237.522-132.964c141.944 0 237.522 132.964 237.522 132.964z" fill="#e3f5ff"/><path d="m493.469 173.212s-95.578-132.964-237.522-132.964v265.929c141.944-.001 237.522-132.965 237.522-132.965z" fill="#beebfa"/><circle cx="255.947" cy="145.762" fill="#00cc76" r="120.515"/><path d="m376.462 145.762c0-66.452-54.062-120.515-120.515-120.515v241.029c66.452.001 120.515-54.062 120.515-120.514z" fill="#009986"/><circle cx="255.947" cy="145.762" fill="#2a3860" r="54.296"/><path d="m135.433 351.18v15c0 66.452 54.062 120.515 120.515 120.515s120.515-54.062 120.515-120.515v-15z" fill="#e3f5ff"/><path d="m474.339 173.279c-9.712 11.768-29.241 33.621-56.415 55.214-23.074 18.335-47.085 32.912-71.366 43.325-29.953 12.845-60.439 19.358-90.611 19.358s-60.658-6.513-90.611-19.358c-24.281-10.413-48.292-24.99-71.366-43.325-27.177-21.595-46.707-43.45-56.415-55.214h-37.555l6.246 8.688c1.025 1.426 25.592 35.312 68.353 69.45 25.219 20.133 51.602 36.202 78.416 47.759 33.871 14.599 68.502 22 102.933 22s69.062-7.402 102.933-22c26.814-11.557 53.197-27.626 78.416-47.759 42.761-34.138 67.328-68.024 68.353-69.45l6.245-8.688z" fill="#ffd9b3"/><path d="m37.451 173.153c9.563-11.737 28.908-33.626 56.013-55.255 22.958-18.32 46.934-32.886 71.26-43.292 30.029-12.845 60.721-19.358 91.224-19.358 30.172 0 60.658 6.513 90.611 19.358 24.281 10.413 48.292 24.99 71.366 43.325 27.228 21.636 46.781 43.533 56.47 55.281-.018.022-.037.045-.055.067h37.555l.048-.067-6.293-8.755c-1.025-1.426-25.592-35.312-68.353-69.45-25.219-20.133-51.602-36.202-78.416-47.759-33.871-14.599-68.502-22-102.933-22-34.758 0-69.591 7.4-103.534 21.996-26.889 11.562-53.261 27.639-78.384 47.784-42.609 34.166-66.836 68.09-67.847 69.518l-6.183 8.733h37.555c-.034-.042-.069-.084-.104-.126z" fill="#2a3860"/><path d="m376.462 366.18v-15h-120.515v135.515c66.452 0 120.515-54.063 120.515-120.515z" fill="#beebfa"/><path d="m474.339 173.279c-9.712 11.768-29.241 33.621-56.415 55.214-23.074 18.335-47.085 32.912-71.366 43.325-29.953 12.845-60.439 19.358-90.611 19.358v30c34.431 0 69.062-7.402 102.933-22 26.814-11.557 53.197-27.626 78.416-47.759 42.761-34.138 67.328-68.024 68.353-69.45l6.245-8.688z" fill="#fb9"/><g fill="#232e41"><path d="m310.244 145.762c0-29.939-24.357-54.296-54.296-54.296v108.592c29.938.001 54.296-24.357 54.296-54.296z"/><path d="m505.649 164.457c-1.025-1.426-25.592-35.312-68.353-69.45-25.219-20.133-51.602-36.202-78.416-47.759-33.871-14.599-68.502-22-102.933-22v30c30.172 0 60.658 6.513 90.611 19.358 24.281 10.413 48.292 24.99 71.366 43.325 27.228 21.636 46.781 43.533 56.47 55.281-.018.022-.037.045-.055.067h37.555l.048-.067z"/></g></g></svg>