<svg width="513" height="516" viewBox="0 0 513 516" fill="none" xmlns="http://www.w3.org/2000/svg">
<ellipse cx="256.5" cy="258" rx="256.5" ry="258" fill="#C4C4C4"/>
<path d="M331.956 209.061L268.496 271.619V84.03C268.496 77.389 263.058 72 256.345 72C249.632 72 244.194 77.39 244.194 84.03V271.619L180.734 209.061C175.994 204.369 168.295 204.369 163.555 209.061C158.815 213.765 158.815 221.38 163.555 226.072L247.755 309.069C250.005 311.319 253.169 312.606 256.345 312.606C259.509 312.606 262.673 311.307 264.935 309.081L349.135 226.084C353.887 221.38 353.875 213.765 349.135 209.073C344.396 204.369 336.696 204.369 331.956 209.061Z" fill="white" stroke="white" stroke-width="17"/>
<path d="M125 308.5C122.515 308.5 120.5 310.515 120.5 313V409C120.5 411.485 122.515 413.5 125 413.5H387C389.485 413.5 391.5 411.485 391.5 409V313C391.5 310.515 389.485 308.5 387 308.5H359C356.515 308.5 354.5 310.515 354.5 313V372.5H155.5V313C155.5 310.515 153.485 308.5 151 308.5H125Z" fill="white" stroke="white" stroke-width="9" stroke-linejoin="round"/>
</svg>
