<svg id="Capa_1" enable-background="new 0 0 512 512" height="512" viewBox="0 0 512 512" width="512" xmlns="http://www.w3.org/2000/svg"><g><g><path d="m436.28 251.404c12.914 0 23.421-10.506 23.421-23.421 0-12.914-10.506-23.42-23.421-23.42-12.914 0-23.42 10.506-23.42 23.42 0 12.915 10.506 23.421 23.42 23.421zm0-31.845c4.646 0 8.425 3.779 8.425 8.424 0 4.646-3.779 8.425-8.425 8.425-4.645 0-8.424-3.779-8.424-8.425-.001-4.645 3.779-8.424 8.424-8.424z"/><path d="m75.72 204.563c-12.914 0-23.421 10.506-23.421 23.42s10.506 23.421 23.421 23.421c12.914 0 23.42-10.506 23.42-23.421 0-12.913-10.506-23.42-23.42-23.42zm0 31.845c-4.646 0-8.425-3.779-8.425-8.425 0-4.645 3.779-8.424 8.425-8.424 4.645 0 8.424 3.779 8.424 8.424.001 4.646-3.779 8.425-8.424 8.425z"/><path d="m152.387 298.22c-31.65 0-57.4 25.75-57.4 57.4 0 31.651 25.75 57.401 57.4 57.401 31.651 0 57.401-25.75 57.401-57.401 0-31.65-25.75-57.4-57.401-57.4zm0 99.805c-23.382 0-42.404-19.022-42.404-42.405 0-23.382 19.023-42.404 42.404-42.404 23.382 0 42.405 19.022 42.405 42.404 0 23.383-19.023 42.405-42.405 42.405z"/><path d="m152.387 327.023c-15.769 0-28.598 12.829-28.598 28.597 0 15.769 12.829 28.598 28.598 28.598s28.598-12.829 28.598-28.598c0-15.768-12.829-28.597-28.598-28.597zm0 42.2c-7.5 0-13.602-6.102-13.602-13.602s6.102-13.602 13.602-13.602 13.602 6.102 13.602 13.602-6.101 13.602-13.602 13.602z"/><path d="m256 234.017c-13.624 0-24.708 11.084-24.708 24.708 0 13.625 11.084 24.709 24.708 24.709s24.708-11.084 24.708-24.709c0-13.624-11.084-24.708-24.708-24.708zm0 34.421c-5.355 0-9.713-4.357-9.713-9.713 0-5.355 4.357-9.713 9.713-9.713s9.713 4.357 9.713 9.713-4.358 9.713-9.713 9.713z"/><path d="m472.982 257.363c6.464-8.055 10.34-18.271 10.34-29.38 0-25.939-21.103-47.042-47.042-47.042-5.027 0-9.868.801-14.413 2.267h-129.373v-22.798c0-6.884-5.601-12.485-12.485-12.485h-1.866v-57.523h96.947c7.184 0 13.028-5.844 13.028-13.028v-52.32c0-7.992-6.502-14.494-14.494-14.494h-27.75c-7.992 0-14.494 6.502-14.494 14.494v18.42h-97.524c-7.184 0-13.028 5.845-13.028 13.028v20.873c0 7.183 5.844 13.027 13.028 13.028v57.523h-1.866c-6.884 0-12.485 5.601-12.485 12.485v22.798h-48.732c-4.141 0-7.498 3.357-7.498 7.498s3.357 7.498 7.498 7.498h34.646v24.548h-82.956c-1.029-9.252-4.745-17.703-10.358-24.548h23.927c4.141 0 7.498-3.357 7.498-7.498s-3.357-7.498-7.498-7.498h-45.9c-4.545-1.467-9.386-2.267-14.413-2.267-25.939 0-47.042 21.103-47.042 47.042 0 11.106 3.878 21.319 10.339 29.375-24.016 22.86-39.016 55.11-39.016 90.806 0 48.561 27.753 90.746 68.222 111.574v21.16c0 6.328 2.848 12.204 7.815 16.122 3.673 2.898 8.117 4.42 12.673 4.42 1.603 0 3.219-.188 4.821-.572 34.465-8.247 64.327-20.863 88.758-37.497 41.673-28.374 64.724-66.556 68.511-113.486.016-.201.024-.402.024-.603v-19.069c1.702.174 3.428.263 5.175.263s3.473-.089 5.175-.263v19.069c0 .201.008.403.024.603 3.788 46.93 26.838 85.113 68.511 113.486 24.431 16.634 54.294 29.25 88.759 37.497 1.602.383 3.217.572 4.82.572 4.555 0 9-1.522 12.673-4.42 4.966-3.918 7.815-9.794 7.815-16.122v-21.164c40.47-20.828 68.224-63.01 68.224-111.57 0-35.695-15.002-67.942-39.018-90.802zm-36.702-61.426c17.67 0 32.046 14.376 32.046 32.046s-14.376 32.047-32.046 32.047-32.046-14.376-32.046-32.046 14.376-32.047 32.046-32.047zm-129.7 2.268h93.314c-5.612 6.845-9.329 15.296-10.358 24.548h-82.956zm39.797-172.649h26.746v17.918h-26.746zm-110.552 32.914h137.298v16.937h-137.298zm27.322 31.934v57.522h-14.295v-57.522zm-28.645 72.518h42.997v20.287h-42.997zm-166.28 279.641c-31.879-19.385-53.226-54.438-53.226-94.398 0-31.83 13.545-60.55 35.165-80.719 5.37 3.49 11.487 5.918 18.061 6.976zm7.498-182.533c-17.67 0-32.046-14.376-32.046-32.046s14.376-32.046 32.046-32.046 32.046 14.376 32.046 32.046-14.376 32.046-32.046 32.046zm160.109 88.945c-7.522 90.905-94.545 125.047-145.788 137.309-2.267.543-3.929-.416-4.715-1.037-.787-.621-2.107-2.012-2.107-4.349v-206.48c19.18-3.087 34.519-17.804 38.518-36.669h83.684v42.147c0 20.722 12.531 38.565 30.409 46.372v22.707zm20.171-33.495c-19.621 0-35.584-15.963-35.584-35.584v-81.691h71.169v81.691c-.001 19.621-15.964 35.584-35.585 35.584zm187.778 127.095v-115.731c0-4.141-3.357-7.498-7.498-7.498s-7.498 3.357-7.498 7.498v154.055c0 2.338-1.32 3.728-2.107 4.349-.785.62-2.446 1.581-4.715 1.037-51.243-12.262-138.267-46.404-145.789-137.309v-22.708c17.878-7.807 30.409-25.649 30.409-46.372v-42.147h83.684c3.999 18.865 19.337 33.582 38.518 36.669v17.685c0 4.141 3.357 7.498 7.498 7.498s7.498-3.357 7.498-7.498v-17.682c6.573-1.058 12.688-3.49 18.057-6.978 21.623 20.169 35.169 48.89 35.169 80.721 0 39.963-21.344 75.027-53.226 94.411z"/><path d="m359.613 327.023c-15.769 0-28.598 12.829-28.598 28.597 0 15.769 12.829 28.598 28.598 28.598s28.598-12.829 28.598-28.598c-.001-15.768-12.83-28.597-28.598-28.597zm0 42.2c-7.5 0-13.602-6.102-13.602-13.602s6.102-13.602 13.602-13.602 13.602 6.102 13.602 13.602c-.001 7.5-6.102 13.602-13.602 13.602z"/><path d="m359.613 298.22c-31.651 0-57.401 25.75-57.401 57.4 0 31.651 25.75 57.401 57.401 57.401 31.65 0 57.4-25.75 57.4-57.401 0-31.65-25.75-57.4-57.4-57.4zm0 99.805c-23.382 0-42.405-19.022-42.405-42.405 0-23.382 19.023-42.404 42.405-42.404s42.404 19.022 42.404 42.404c0 23.383-19.023 42.405-42.404 42.405z"/></g></g></svg>