<svg height="512" viewBox="0 0 64 64" width="512" xmlns="http://www.w3.org/2000/svg"><g id="individual"><path d="m61 28v15l-4 12h-16v-7l3.88-13.18.7-2.38a1.992 1.992 0 0 1 1.92-1.44h.5a2.006 2.006 0 0 1 2 2v12l5-9v-8l-4.25-14.44a2 2 0 0 1 1.92-2.56h.91a2 2 0 0 1 1.89 1.33z" fill="#ffdaaa"/><path d="m61 28v15l-4 12h-4l4-12v-15l-5.53-15.67a1.981 1.981 0 0 0 -.34-.6 1.982 1.982 0 0 1 1.54-.73h.91a2 2 0 0 1 1.89 1.33z" fill="#ffc477"/><path d="m38 55h22v6h-22z" fill="#c0ab91"/><path d="m56 55h4v6h-4z" fill="#b39a7c"/><path d="m44.88 34.81v.01l-2.41 8.18h-20.94l-2.41-8.19a6.966 6.966 0 0 1 3.11-4.14 8.926 8.926 0 0 1 1.84-.57c.23-.05.93-.1.93-.1h14s.7.05.93.1a8.95 8.95 0 0 1 1.84.58 7 7 0 0 1 3.11 4.13z" fill="#a4e276"/><path d="m44.88 34.81v.01l-2.41 8.18h-4l2.41-8.18v-.01a7 7 0 0 0 -3.11-4.13 8.95 8.95 0 0 0 -1.84-.58c-.23-.05-.93-.1-.93-.1h4s.7.05.93.1a8.95 8.95 0 0 1 1.84.58 7 7 0 0 1 3.11 4.13z" fill="#7ed63e"/><path d="m45 20a19.761 19.761 0 0 1 -3.23 10.68 17.544 17.544 0 0 1 -2.75 3.32 20.353 20.353 0 0 0 .91-3.9 8.023 8.023 0 0 0 .07-1.1 16.494 16.494 0 0 0 -2.33-9.03 6.122 6.122 0 0 0 .33-1.97v-6l-8-2-4 2v6a5.761 5.761 0 0 0 .33 1.96v.01a16.494 16.494 0 0 0 -2.33 9.03 8.023 8.023 0 0 0 .07 1.1 20.373 20.373 0 0 0 .93 3.9 18.082 18.082 0 0 1 -2.77-3.33 19.811 19.811 0 0 1 -3.23-10.67c0-9.37 5.89-17 13-17s13 7.63 13 17z" fill="#ffa733"/><path d="m45 20a19.761 19.761 0 0 1 -3.23 10.68 17.544 17.544 0 0 1 -2.75 3.32 22.948 22.948 0 0 0 .86-3.5 19.714 19.714 0 0 0 3.12-10.5c0-8.93-5.35-16.27-12-16.94a8.262 8.262 0 0 1 1-.06c7.11 0 13 7.63 13 17z" fill="#ff9811"/><path d="m39 30-7 4-7-4 4-3v-3.81a5.961 5.961 0 0 0 6 0v3.81z" fill="#ffdaaa"/><path d="m38 12v6a6.122 6.122 0 0 1 -.33 1.97 6.02 6.02 0 0 1 -2.67 3.22 5.961 5.961 0 0 1 -6 0 6.02 6.02 0 0 1 -2.67-3.22v-.01a5.761 5.761 0 0 1 -.33-1.96v-6l4-2z" fill="#ffdaaa"/><path d="m38 12v6a6.122 6.122 0 0 1 -.33 1.97 6.02 6.02 0 0 1 -2.67 3.22 5.857 5.857 0 0 1 -3 .81 6.531 6.531 0 0 1 -1-.08 5.79 5.79 0 0 0 2-.73 6.02 6.02 0 0 0 2.67-3.22 6.122 6.122 0 0 0 .33-1.97v-6l-6.67-1.67.67-.33z" fill="#ffc477"/><path d="m4 55h22v6h-22z" fill="#c0ab91"/><path d="m23 48v7h-16l-4-12v-15l5.53-15.67a2 2 0 0 1 1.89-1.33h.91a2 2 0 0 1 1.92 2.56l-4.25 14.44v8l5 9v-12a2.006 2.006 0 0 1 2-2h.5a1.992 1.992 0 0 1 1.92 1.44z" fill="#ffdaaa"/><path d="m22 55h4v6h-4z" fill="#b39a7c"/><path d="m23 48v7h-4v-7l-4.58-15.56a1.783 1.783 0 0 0 -.17-.4 2 2 0 0 1 1.75-1.04h.5a1.992 1.992 0 0 1 1.92 1.44z" fill="#ffc477"/><path d="m16 8h2v-2h2v-2h-2v-2h-2v2h-2v2h2z"/><path d="m4 11h2v-2h2v-2h-2v-2h-2v2h-2v2h2z"/><path d="m46 8h2v-2h2v-2h-2v-2h-2v2h-2v2h2z"/><path d="m60 7v-2h-2v2h-2v2h2v2h2v-2h2v-2z"/><path d="m61.94 27.67-5.53-15.67a3 3 0 0 0 -2.83-2h-.91a2.984 2.984 0 0 0 -2.4 1.2 3.025 3.025 0 0 0 -.48 2.65l4.21 14.29v7.6l-3 5.4v-8.14a3.009 3.009 0 0 0 -3-3h-.5a3.007 3.007 0 0 0 -2.8 1.96 7.134 7.134 0 0 0 -1.56-1.59 20.637 20.637 0 0 0 2.86-10.37c0-9.93-6.28-18-14-18s-14 8.07-14 18a20.493 20.493 0 0 0 2.87 10.35 7.172 7.172 0 0 0 -1.57 1.59 3.014 3.014 0 0 0 -2.8-1.94h-.5a3.009 3.009 0 0 0 -3 3v8.14l-3-5.4v-7.6l4.21-14.29a3.025 3.025 0 0 0 -.48-2.65 2.984 2.984 0 0 0 -2.4-1.2h-.91a3 3 0 0 0 -2.83 2l-5.53 15.67a.919.919 0 0 0 -.06.33v15a1.185 1.185 0 0 0 .05.32l3.56 10.68h-1.61a1 1 0 0 0 -1 1v6a1 1 0 0 0 1 1h22a1 1 0 0 0 1-1v-6a1 1 0 0 0 -1-1h-2v-6a.863.863 0 0 0 -.04-.28l-1.09-3.72h18.26l-1.09 3.72a.863.863 0 0 0 -.04.28v6h-2a1 1 0 0 0 -1 1v6a1 1 0 0 0 1 1h22a1 1 0 0 0 1-1v-6a1 1 0 0 0 -1-1h-1.61l3.56-10.68a1.185 1.185 0 0 0 .05-.32v-15a.919.919 0 0 0 -.06-.33zm-41.94-7.67c0-8.82 5.38-16 12-16s12 7.18 12 16a18.6 18.6 0 0 1 -3.06 10.13 10.416 10.416 0 0 0 .06-1.13 17.866 17.866 0 0 0 -2.25-9.18 6.835 6.835 0 0 0 .25-1.82v-6a1 1 0 0 0 -.76-.97l-8-2a.978.978 0 0 0 -.69.08l-4 2a.977.977 0 0 0 -.55.89v6a6.835 6.835 0 0 0 .25 1.82 17.866 17.866 0 0 0 -2.25 9.18 10.047 10.047 0 0 0 .06 1.11 18.608 18.608 0 0 1 -3.06-10.11zm8 3.74v2.76l-2.99 2.24a17.26 17.26 0 0 1 1.3-6.67 7.44 7.44 0 0 0 1.69 1.67zm-1-5.74v-5.38l3.12-1.56 6.88 1.72v5.22a5 5 0 0 1 -10 0zm2.6 9.8a1.014 1.014 0 0 0 .4-.8v-2.29a7.042 7.042 0 0 0 4 0v2.29a1.014 1.014 0 0 0 .4.8l2.78 2.09-5.18 2.96-5.18-2.96zm6.4-1.3v-2.76a7.44 7.44 0 0 0 1.69-1.67 17.26 17.26 0 0 1 1.3 6.67zm-32 16.34v-14.67l5.47-15.5a1 1 0 0 1 .95-.67h.91a1 1 0 0 1 .96 1.28l-4.25 14.44a.863.863 0 0 0 -.04.28v8a.947.947 0 0 0 .13.49l5 9a1 1 0 0 0 1.87-.49v-12a1 1 0 0 1 1-1h.5a1 1 0 0 1 .96.72l4.54 15.42v5.86h-14.28zm21 13.16v4h-20v-4zm-2.72-14-2.12-7.21a5.009 5.009 0 0 1 1.8-2.76 17.882 17.882 0 0 0 2.36 2.7.975.975 0 0 0 1.2.07 1.067 1.067 0 0 0 .41-1.19c-.23-.75-.47-1.51-.64-2.3l6.21 3.56a1.027 1.027 0 0 0 1 0l6.22-3.56c-.18.84-.42 1.64-.66 2.4a1 1 0 0 0 .43 1.14 1.014 1.014 0 0 0 .53.15.977.977 0 0 0 .68-.27 17.546 17.546 0 0 0 2.34-2.68 4.959 4.959 0 0 1 1.8 2.74l-2.12 7.21zm36.72 14v4h-20v-4zm1-13.16-3.72 11.16h-14.28v-5.86l4.54-15.42a1 1 0 0 1 .96-.72h.5a1 1 0 0 1 1 1v12a1 1 0 0 0 1.87.49l5-9a.947.947 0 0 0 .13-.49v-8a.863.863 0 0 0 -.04-.28l-4.25-14.44a1 1 0 0 1 .96-1.28h.91a1 1 0 0 1 .95.67l5.47 15.5z"/><path d="m29 14h2v2h-2z"/><path d="m33 14h2v2h-2z"/></g></svg>