<svg width="142" height="108" viewBox="0 0 142 108" fill="none" xmlns="http://www.w3.org/2000/svg">
<path d="M49.448 47.248C54.824 49.744 58.952 53.488 61.832 58.48C64.904 63.28 66.44 68.944 66.44 75.472C66.44 85.072 63.368 92.848 57.224 98.8C51.08 104.752 43.208 107.728 33.608 107.728C24.008 107.728 16.136 104.752 9.992 98.8C3.848 92.848 0.776001 85.072 0.776001 75.472C0.776001 71.056 1.352 66.64 2.504 62.224C3.656 57.808 6.248 51.28 10.28 42.64L28.712 0.304016H62.984L49.448 47.248ZM124.904 47.248C130.28 49.744 134.408 53.488 137.288 58.48C140.36 63.28 141.896 68.944 141.896 75.472C141.896 85.072 138.824 92.848 132.68 98.8C126.536 104.752 118.664 107.728 109.064 107.728C99.464 107.728 91.592 104.752 85.448 98.8C79.304 92.848 76.232 85.072 76.232 75.472C76.232 71.056 76.808 66.64 77.96 62.224C79.112 57.808 81.704 51.28 85.736 42.64L104.168 0.304016H138.44L124.904 47.248Z" fill="#72E0FF"/>
</svg>
